<?xml version="1.0" encoding="utf-8"?>
<!-- Generator: Adobe Illustrator 25.4.1, SVG Export Plug-In . SVG Version: 6.00 Build 0)  -->
<svg version="1.1" id="Layer_1" xmlns="http://www.w3.org/2000/svg" xmlns:xlink="http://www.w3.org/1999/xlink" x="0px" y="0px"
	 viewBox="0 0 595.28 841.89" style="enable-background:new 0 0 595.28 841.89;" xml:space="preserve">
<style type="text/css">
	.st0{fill:#FFFFFF;}
	.st1{fill:#2156A4;}
</style>
<g>
	<path class="st0" d="M101.38,127.92c132.12,0,264.24,0,396.36,0c48.64,0,88.08,36.52,88.08,81.56c0,136.32,0,272.63,0,408.95
		c0,45.05-39.43,81.56-88.08,81.56c-132.12,0-264.24,0-396.36,0c-48.64,0-88.08-36.52-88.08-81.56c0-136.32,0-272.63,0-408.95
		C13.3,164.44,52.73,127.92,101.38,127.92z M397.28,342.59c7.64-2.84,17.11-5.8,26.04-9.81c14.78-6.63,28.29-15,37.28-28.27
		c12.4-18.31,10.18-41.47-6.66-60.45c-23.03-25.95-53.89-38.43-89.35-39.14c-59.91-1.2-119.86-0.72-179.8-0.95
		c-3.87-0.01-7.75-0.13-11.62,0c-14.83,0.53-26.07,11.35-26.05,24.97c0.02,14.41,10.67,24.66,26.16,25.11
		c5.09,0.15,10.19,0.18,15.28,0.18c49.33-0.03,98.67-0.2,148,0.02c7.86,0.04,15.87,1.25,23.53,2.98
		c11.01,2.49,21.21,6.63,27.29,16.52c6.69,10.88,2.57,24.66-10.49,33.67c-11.67,8.06-25.13,9.94-39.3,9.93
		c-54.63-0.02-109.27,0.16-163.9,0.28c-8.01,0.02-14.7,2.93-19.87,8.52c-7.71,8.31-8.78,17.84-4.03,27.52
		c4.86,9.91,13.99,14.29,25.63,14.31c52.8,0.08,105.6,0.16,158.41,0.21c13.79,0.01,26.54,3.65,38.43,9.79
		c24.07,12.43,25.15,37.74,2.29,51.57c-10.76,6.51-22.81,8.85-35.49,8.85c-26.91,0.02-53.82-0.09-80.73,0.01
		c-28.74,0.11-57.49,0.25-86.23,0.7c-12.29,0.19-19.93,7.07-24.1,17.13c-3.54,8.54-2.58,16.76,5.16,23.32
		c3.86,3.27,7.96,6.3,12.1,9.27c26.37,18.94,52.76,37.87,79.18,56.75c52.52,37.53,105.14,74.94,157.55,112.59
		c11.49,8.25,22.83,15.71,38.57,13.88c13.06-1.52,23.98-8.68,27.09-18.93c3.6-11.85-2.52-19.76-12.3-26.4
		c-9.85-6.69-19.43-13.71-29.11-20.62c-44.79-31.99-89.58-63.98-134.37-95.98c-9.58-6.84-19.13-13.71-29.93-21.45
		c14.06,0,26.42,0.18,38.77-0.04c19.73-0.36,39.62,0.3,59.15-1.81c33.9-3.67,64.76-14.91,89.18-38.08
		c15.29-14.51,22.99-31.65,16.94-52.07c-4.29-14.46-14.93-25.16-28.09-33.05C424.51,355.63,410.07,349.14,397.28,342.59z"/>
	<path class="st1" d="M397.28,342.59c12.79,6.55,27.24,13.04,40.61,21.06c13.16,7.89,23.8,18.58,28.09,33.05
		c6.05,20.41-1.65,37.55-16.94,52.07c-24.41,23.17-55.28,34.41-89.18,38.08c-19.53,2.11-39.42,1.45-59.15,1.81
		c-12.35,0.23-24.71,0.04-38.77,0.04c10.8,7.74,20.35,14.61,29.93,21.45c44.78,32,89.57,63.99,134.37,95.98
		c9.67,6.91,19.26,13.93,29.11,20.62c9.78,6.65,15.9,14.56,12.3,26.4c-3.12,10.25-14.04,17.41-27.09,18.93
		c-15.75,1.83-27.08-5.63-38.57-13.88c-52.42-37.65-105.03-75.06-157.55-112.59c-26.42-18.88-52.81-37.8-79.18-56.75
		c-4.13-2.97-8.24-6-12.1-9.27c-7.74-6.56-8.69-14.79-5.16-23.32c4.17-10.06,11.81-16.94,24.1-17.13
		c28.74-0.44,57.48-0.58,86.23-0.7c26.91-0.1,53.82,0,80.73-0.01c12.67-0.01,24.72-2.35,35.49-8.85
		c22.86-13.82,21.78-39.14-2.29-51.57c-11.89-6.14-24.64-9.78-38.43-9.79c-52.8-0.05-105.6-0.14-158.41-0.21
		c-11.64-0.02-20.77-4.39-25.63-14.31c-4.75-9.69-3.67-19.21,4.03-27.52c5.17-5.58,11.86-8.5,19.87-8.52
		c54.63-0.12,109.27-0.3,163.9-0.28c14.17,0.01,27.64-1.87,39.3-9.93c13.06-9.02,17.17-22.8,10.49-33.67
		c-6.08-9.88-16.28-14.03-27.29-16.52c-7.66-1.73-15.67-2.95-23.53-2.98c-49.33-0.22-98.66-0.05-148-0.02
		c-5.09,0-10.19-0.03-15.28-0.18c-15.5-0.45-26.14-10.69-26.16-25.11c-0.02-13.62,11.22-24.43,26.05-24.97
		c3.87-0.14,7.75-0.02,11.62,0c59.93,0.23,119.89-0.25,179.8,0.95c35.46,0.71,66.32,13.19,89.35,39.14
		c16.84,18.98,19.06,42.14,6.66,60.45c-8.99,13.27-22.49,21.64-37.28,28.27C414.39,336.78,404.92,339.75,397.28,342.59z"/>
</g>
</svg>
