<?xml version="1.0" encoding="utf-8"?>
<!-- Generator: Adobe Illustrator 25.4.1, SVG Export Plug-In . SVG Version: 6.00 Build 0)  -->
<svg version="1.1" id="Layer_1" xmlns="http://www.w3.org/2000/svg" xmlns:xlink="http://www.w3.org/1999/xlink" x="0px" y="0px"
	 viewBox="0 0 595.28 841.89" style="enable-background:new 0 0 595.28 841.89;" xml:space="preserve">
<style type="text/css">
	.st0{fill:#FFFFFF;}
</style>
<g>
	<path class="st0" d="M397.28,342.59c12.79,6.55,27.24,13.04,40.61,21.06c13.16,7.89,23.8,18.58,28.09,33.05
		c6.05,20.41-1.65,37.55-16.94,52.07c-24.41,23.17-55.28,34.41-89.18,38.08c-19.53,2.11-39.42,1.45-59.15,1.81
		c-12.35,0.23-24.71,0.04-38.77,0.04c10.8,7.74,20.35,14.61,29.93,21.45c44.78,32,89.57,63.99,134.37,95.98
		c9.67,6.91,19.26,13.93,29.11,20.62c9.78,6.65,15.9,14.56,12.3,26.4c-3.12,10.25-14.04,17.41-27.09,18.93
		c-15.75,1.83-27.08-5.63-38.57-13.88c-52.42-37.65-105.03-75.06-157.55-112.59c-26.42-18.88-52.81-37.8-79.18-56.75
		c-4.13-2.97-8.24-6-12.1-9.27c-7.74-6.56-8.69-14.79-5.16-23.32c4.17-10.06,11.81-16.94,24.1-17.13
		c28.74-0.44,57.48-0.58,86.23-0.7c26.91-0.1,53.82,0,80.73-0.01c12.67-0.01,24.72-2.35,35.49-8.85
		c22.86-13.82,21.78-39.14-2.29-51.57c-11.89-6.14-24.64-9.78-38.43-9.79c-52.8-0.05-105.6-0.14-158.41-0.21
		c-11.64-0.02-20.77-4.39-25.63-14.31c-4.75-9.69-3.67-19.21,4.03-27.52c5.17-5.58,11.86-8.5,19.87-8.52
		c54.63-0.12,109.27-0.3,163.9-0.28c14.17,0.01,27.64-1.87,39.3-9.93c13.06-9.02,17.17-22.8,10.49-33.67
		c-6.08-9.88-16.28-14.03-27.29-16.52c-7.66-1.73-15.67-2.95-23.53-2.98c-49.33-0.22-98.66-0.05-148-0.02
		c-5.09,0-10.19-0.03-15.28-0.18c-15.5-0.45-26.14-10.69-26.16-25.11c-0.02-13.62,11.22-24.43,26.05-24.97
		c3.87-0.14,7.75-0.02,11.62,0c59.93,0.23,119.89-0.25,179.8,0.95c35.46,0.71,66.32,13.19,89.35,39.14
		c16.84,18.98,19.06,42.14,6.66,60.45c-8.99,13.27-22.49,21.64-37.28,28.27C414.39,336.78,404.92,339.75,397.28,342.59z"/>
</g>
</svg>
